<?xml version="1.0" encoding="UTF-8" standalone="no"?>
<!-- Generated by IcoMoon.io -->

<svg
   xmlns:dc="http://purl.org/dc/elements/1.1/"
   xmlns:cc="http://creativecommons.org/ns#"
   xmlns:rdf="http://www.w3.org/1999/02/22-rdf-syntax-ns#"
   xmlns:svg="http://www.w3.org/2000/svg"
   xmlns="http://www.w3.org/2000/svg"
   xmlns:sodipodi="http://sodipodi.sourceforge.net/DTD/sodipodi-0.dtd"
   xmlns:inkscape="http://www.inkscape.org/namespaces/inkscape"
   version="1.1"
   width="32"
   height="32"
   viewBox="0 0 32 32"
   id="svg6"
   sodipodi:docname="lattes.svg"
   inkscape:version="0.92.3 (2405546, 2018-03-11)">
  <metadata
     id="metadata12">
    <rdf:RDF>
      <cc:Work
         rdf:about="">
        <dc:format>image/svg+xml</dc:format>
        <dc:type
           rdf:resource="http://purl.org/dc/dcmitype/StillImage" />
        <dc:title>lattes</dc:title>
      </cc:Work>
    </rdf:RDF>
  </metadata>
  <defs
     id="defs10" />
  <sodipodi:namedview
     pagecolor="#ffffff"
     bordercolor="#666666"
     borderopacity="1"
     objecttolerance="10"
     gridtolerance="10"
     guidetolerance="10"
     inkscape:pageopacity="0"
     inkscape:pageshadow="2"
     inkscape:window-width="1366"
     inkscape:window-height="717"
     id="namedview8"
     showgrid="false"
     inkscape:zoom="16.90625"
     inkscape:cx="16"
     inkscape:cy="16"
     inkscape:window-x="0"
     inkscape:window-y="25"
     inkscape:window-maximized="1"
     inkscape:current-layer="svg6" />
  <title
     id="title2">lattes</title>
  <path
     d="M 6.6298233,28.258112 C 3.206431,21.77409 1.1696817,17.858204 1.1696817,17.760944 c 0,-0.158627 0.2091864,-0.136627 2.2659775,0.236204 3.6175474,0.656507 5.5503298,0.841765 8.7720518,0.842923 4.262643,0.0012 7.733634,-0.62293 10.430511,-1.876893 1.426726,-0.663454 2.284767,-1.251648 2.987483,-2.048256 0.865555,-0.981866 1.143636,-1.658057 1.153657,-2.796235 0.0088,-1.0826 -0.149061,-1.653425 -0.826725,-2.9780181 -0.26806,-0.5233532 -0.503551,-1.124283 -0.526098,-1.3350137 -0.03507,-0.3392533 -0.005,-0.3878835 0.265554,-0.41683 0.591234,-0.06484 3.509823,2.5542414 4.584565,4.1138798 1.852615,2.689711 2.002929,5.599416 0.434657,8.413018 -0.96326,1.728687 -2.027981,2.924757 -3.81045,4.284086 -2.962431,2.257829 -6.405865,3.830204 -11.160785,5.096904 -2.554078,0.680823 -6.6839447,1.506378 -7.5344691,1.506378 -0.1803764,0 -0.518582,-0.546511 -1.5732824,-2.546137 z M 7.583062,17.801469 C 4.2573736,17.403165 1.4665511,17.056965 1.3801207,17.031492 1.2323124,16.987493 0.70370953,15.357225 0.40558756,14.030316 0.33043075,13.694536 0.22020078,12.805299 0.16007534,12.052689 -0.10798392,8.6948924 0.6824151,6.3733811 2.8005843,4.2857577 6.3868163,0.75428159 14.065336,0.32471516 22.72841,3.1707375 c 1.520673,0.500196 2.124432,0.8475543 1.845099,1.0640743 -0.206681,0.1597848 -1.607102,0.1574691 -4.027151,-0.00695 -3.782893,-0.2570451 -6.662651,0.2292565 -8.146998,1.3778546 -2.259714,1.7483702 -1.915245,5.5808896 0.999586,11.1096766 0.315658,0.598614 0.633822,1.184491 0.706474,1.303751 0.169103,0.274413 0.04635,0.529143 -0.248018,0.516406 -0.125261,-0.0058 -2.948652,-0.33578 -6.27434,-0.734084 z m 11.157027,-3.008123 c -2.654288,-0.441145 -5.040516,-1.962574 -5.810873,-3.702839 -0.369521,-0.835976 -0.351985,-1.9266809 0.04259,-2.5797145 0.356994,-0.5905091 1.278918,-1.2736471 2.10439,-1.5596388 1.374117,-0.4758808 3.780387,-0.2859916 5.534046,0.4376715 1.664723,0.6866116 3.140301,1.8942606 3.688946,3.0173858 0.703969,1.441537 0.117746,3.049806 -1.390401,3.817468 -0.999585,0.508301 -2.942388,0.773451 -4.16995,0.569667 z"
     id="path4"
     inkscape:connector-curvature="0"
     sodipodi:nodetypes="csccccccccccccsccscccccccccccsccccccccc"
     style="fill:#ffffff;stroke-width:1.20430565" />
</svg>
